<?xml version="1.0" encoding="UTF-8"?>
<svg width="250px" height="140px" viewBox="0 0 250 140" version="1.1" xmlns="http://www.w3.org/2000/svg" xmlns:xlink="http://www.w3.org/1999/xlink">
    <!-- Generator: Sketch 46.1 (44463) - http://www.bohemiancoding.com/sketch -->
    <title>Desktop HD</title>
    <desc>Created with Sketch.</desc>
    <defs></defs>
    <g id="Page-1" stroke="none" stroke-width="1" fill="none" fill-rule="evenodd">
        <g id="Desktop-HD">
            <g id="palm-tree" transform="translate(12.000000, 16.602849)">
                <path d="M82.7291392,126.274752 C82.7305364,126.260192 82.7319318,126.24562 82.7333255,126.231037 C86.1477618,90.5012444 71.1246812,58.4071735 71.1246812,58.4071735 C71.1246812,58.4071735 66.5265246,50.2301549 64.7865068,48.3604714 C80.6572915,103.156518 65.1511004,126.976349 65.1511004,126.976349 C65.1511004,126.976349 65.2078553,127.116494 65.3150467,127.369984 C69.7394797,126.614172 75.6164442,126.032745 82.7291392,126.274752 Z" id="Combined-Shape" fill="#444F55"></path>
                <path d="M41.3877184,43.2850872 C39.5231012,46.7570836 37.433893,51.2737599 35.4852017,56.8808006 C30.1711937,72.1709901 44.1382004,89.0334941 44.1382004,89.0334941 L48.7839397,81.9888744 L44.2358839,73.4637488 L52.7593423,75.5367076 L56.8282542,65.3642705 L50.2524381,57.3311619 L60.0128678,57.0731328 C60.0128678,57.0731328 61.1361469,51.7058261 60.9666937,46.7140212 C60.7972405,41.7222163 59.880686,37.6539192 60.7521094,39.5698278 C62.5124079,43.4400137 69.5906594,48.0348835 71.8342219,49.5397263 C74.0777845,51.0445691 82.785418,55.881796 82.785418,55.881796 C82.785418,55.881796 83.120482,54.9569023 83.0681271,50.5887531 C83.0157721,46.2206039 81.471754,44.0169095 80.7422536,42.4044396 C79.3250923,39.2719807 72.8497935,32.9866979 72.8497935,32.9866979 L81.6092819,33.9174553 L83.0157721,23.6533919 L86.7748569,34.58175 L91.3297368,34.9301492 L91.1142371,23.2010485 L98.3790764,35.127203 L115.043485,32.7970929 C115.043485,32.7970929 116.20766,32.1893174 107.07428,23.7993376 C97.9409007,15.4093578 82.4698973,17.6205048 80.7422536,17.6205048 C79.01461,17.6205048 68.2009238,21.9274937 68.2009238,21.9274937 C68.2009238,21.9274937 68.9562197,19.2778715 72.0520779,14.4200804 C75.1479361,9.56228937 74.1324029,0.0162542093 74.1324029,0.0162542093 C74.1324029,0.0162542093 73.0974725,-0.384884545 66.8573353,2.79839476 C63.5535498,4.48375389 58.9340843,10.486212 57.2201724,15.6823529 C55.5062606,20.8784937 56.0803399,26.7288671 56.0803399,26.7288671 C56.0803399,26.7288671 50.0360129,15.8849479 42.2988127,10.4806207 C34.5616124,5.07629364 23.7372963,12.2185429 23.7372963,12.2185429 L27.6441296,17.0676972 L31.7288348,13.0883294 L30.4034114,20.2925685 L34.1961056,23.754729 L40.0285681,18.0248889 L37.541834,26.6218378 L41.7850262,28.6094934 C41.7850262,28.6094934 36.3898973,28.6182273 33.5164074,28.8192514 C18.5582369,29.8656979 10.2588463,37.8878437 5.67900739,45.8575812 C2.71156836,50.5200401 1.17895358,56.5744702 0.485435587,60.1050819 C0.341213348,60.7091186 0.258115177,61.2152326 0.210651369,61.6131631 C0.0624029602,62.4988847 0,63.0187911 0,63.0187911 L7.85240922,60.2630126 C7.85240922,60.2630126 10.9260622,46.1376553 10.9260622,47.3508506 C10.9260622,48.5640458 15.2789212,58.1379286 15.2789212,58.1379286 L24.1966414,53.3067779 L25.3759035,40.015516 L30.8387453,50.7794459 L41.3877184,43.2850872 Z" id="Combined-Shape" stroke="#129B8F" stroke-width="0.9" fill="#34AC91"></path>
                <path d="M115.013575,31.9962875 C115.014321,32.0063103 115.01471,32.0157604 115.014788,32.0246679 L114.849663,32.1798187 L98.3023529,34.4935553 L91.0375136,22.5674009 L91.2530133,34.2965015 L86.6981334,33.9481024 L82.9390486,23.0197442 L81.5325584,33.2838077 L72.7741131,32.3531611 C70.3813531,30.7201956 62.0296342,28.6831139 62.0296342,28.6831139 C62.0296342,28.6831139 63.5900526,26.6228314 66.237634,25.3054013 C68.8852154,23.9879711 64.9038108,25.2493202 74.0007264,22.2396005 C93.1549185,15.9024251 114.320205,31.4803917 115.013575,31.9962875 Z" id="Combined-Shape" stroke="#129B8F" stroke-width="0.9" fill="#219985"></path>
                <path d="M40.899191,43.3158762 L30.8387453,50.463168 L25.3759035,39.6992381 L24.1966414,52.9905 L15.2789212,57.8216507 C15.2789212,57.8216507 10.9260622,48.2477679 10.9260622,47.0345726 C10.9260622,45.8213774 7.85240922,59.9467347 7.85240922,59.9467347 L0,62.7025132 C0,62.7025132 0.0606445687,62.1972567 0.204392363,61.3343681 C2.03544056,56.9379159 8.36671654,44.0357327 22.1972356,36.380587 C29.7094158,32.2226206 34.8659582,32.3315067 38.8306087,32.560679 C42.7952592,32.7898512 46.5802877,33.8988138 46.5802877,33.8988138 L41.6143358,42.7929151 L40.899191,43.3158762 Z" id="Combined-Shape" stroke="#129B8F" stroke-width="0.9" fill="#219985"></path>
                <path d="M76.6673364,46.9952538 C83.451339,54.7566068 82.2216608,55.9147236 82.2216608,55.9147236 C82.2216608,55.9147236 63.3945408,46.4329103 60.3280941,38.8619263 C60.3047208,38.8042181 60.2813443,38.7474026 60.2579661,38.6914694 C60.1841412,38.8129574 60.1439534,38.8782976 60.1439534,38.8782976 C60.1439534,38.8782976 61.6860077,49.8288048 59.8926318,56.9884674 C59.8680285,57.0866905 59.8422916,57.1822621 59.8154567,57.2752364 L50.2824608,57.2195883 L56.8265077,65.364288 L52.5591122,75.2534882 L44.269648,73.4840267 L48.5965306,82.0586113 L44.030316,88.8461692 C44.030316,88.8461692 34.9921087,56.3942503 55.4585894,34.5431938 L61.6189209,36.3905781 C67.9623711,39.3353336 71.2947309,40.8486334 76.6673364,46.9952538 Z" id="Combined-Shape" stroke="#129B8F" stroke-width="0.9" fill="#219985"></path>
                <path d="M71.7470366,74.8165916 C71.7470366,74.8165916 75.4743342,73.6603167 75.4743342,73.1441315 C75.4743342,72.6279463 73.9715046,76.6716478 72.3961109,76.6716478" id="Path-15" stroke="#848484" stroke-width="0.5"></path>
                <path d="M72.3679065,84.294154 C72.3679065,84.294154 77.0423502,82.9230303 77.0423502,81.215115 C77.0423502,79.5071997 78.4319834,83.9486087 72.7542971,85.6671207" id="Path-16" stroke="#848484" stroke-width="0.5"></path>
                <path d="M73.0571247,91.3052424 C73.0571247,91.3052424 79.0671237,89.3464941 79.0671237,86.9066152 C79.0671237,84.4667363 80.853795,90.8116062 73.5539126,93.2666233" id="Path-16" stroke="#848484" stroke-width="0.5"></path>
                <path d="M73.0571247,99.2033327 C73.0571247,99.2033327 79.7349014,96.8528348 79.7349014,93.9249801 C79.7349014,90.9971254 81.7200917,98.6109693 73.6091113,101.55699" id="Path-16" stroke="#848484" stroke-width="0.5"></path>
            </g>
            <g id="palm-tree" transform="translate(155.659308, 97.093488) scale(-1, 1) translate(-155.659308, -97.093488) translate(107.659308, 52.593488)">
                <path d="M68.8583853,88.0510434 C68.8595482,88.0408908 68.8607097,88.0307299 68.8618697,88.0205608 C71.7038257,63.1062731 59.1995849,40.7271642 59.1995849,40.7271642 C59.1995849,40.7271642 55.3723768,35.0253512 53.9240985,33.721626 C67.1339133,71.9307609 54.2275626,88.5402647 54.2275626,88.5402647 C54.2275626,88.5402647 54.2748018,88.6379874 54.3640209,88.8147457 C58.0466328,88.2877202 62.938238,87.8822923 68.8583853,88.0510434 Z" id="Combined-Shape" fill="#444F55"></path>
                <path d="M34.4484603,30.1825743 C32.8964734,32.603588 31.1575517,35.7530542 29.5355871,39.6628285 C25.1125504,50.3246363 36.7377836,62.0828148 36.7377836,62.0828148 L40.6045965,57.1706205 L36.819089,51.2260735 L43.9134646,52.671542 L47.3001637,45.5783291 L41.8268796,39.9768642 L49.95083,39.7969412 C49.95083,39.7969412 50.885775,36.0543328 50.7447331,32.5735608 C50.6036912,29.0927887 49.8408105,26.2559761 50.566127,27.591934 C52.0312856,30.2906041 57.9227644,33.4945944 59.7901608,34.5439173 C61.6575572,35.5932401 68.9052282,38.9662253 68.9052282,38.9662253 C68.9052282,38.9662253 69.1841138,38.3212995 69.1405369,35.2754008 C69.09696,32.2295022 67.8118192,30.6928721 67.2046303,29.5685011 C66.0250769,27.384246 60.6354569,23.0015353 60.6354569,23.0015353 L67.9262886,23.6505499 L69.09696,16.4934462 L72.2257791,24.1137608 L76.0169666,24.3566986 L75.8375986,16.1780284 L81.884381,24.4941037 L95.7547573,22.8693243 C95.7547573,22.8693243 96.7237411,22.445524 89.1217065,16.5952138 C81.5196718,10.7449035 68.6426091,12.2867304 67.2046303,12.2867304 C65.7666514,12.2867304 56.7660384,15.2899821 56.7660384,15.2899821 C56.7660384,15.2899821 57.3946978,13.4424077 59.97149,10.0550831 C62.5482822,6.66775854 61.7030179,0.0113340162 61.7030179,0.0113340162 C61.7030179,0.0113340162 60.8416089,-0.268378953 55.6477222,1.9513131 C52.8978648,3.12650947 49.0529205,7.31200727 47.6263711,10.9352623 C46.1998217,14.5585173 46.6776482,18.6379668 46.6776482,18.6379668 C46.6776482,18.6379668 41.6467413,11.0765312 35.2067962,7.30810852 C28.7668511,3.53968584 19.7573904,8.51995695 19.7573904,8.51995695 L23.0091857,11.9012591 L26.4090302,9.12645675 L25.3058334,14.1499532 L28.4626268,16.5641083 L33.3171914,12.5687063 L31.2473948,18.5633355 L34.7791536,19.9493224 C34.7791536,19.9493224 30.2885972,19.9554125 27.89689,20.0955861 C15.4466762,20.8252704 8.5388002,26.419091 4.72683849,31.9763674 C2.25693414,35.2274874 0.981284714,39.4492252 0.404045189,41.9111112 C0.284003925,42.3323043 0.214838381,42.6852163 0.175332576,42.9626921 C0.0519401884,43.5803034 0,43.9428327 0,43.9428327 L6.53583762,42.0212358 C6.53583762,42.0212358 9.0941476,32.1716623 9.0941476,33.0176201 C9.0941476,33.8635779 12.7171859,40.5394205 12.7171859,40.5394205 L20.1397195,37.1706721 L21.121261,27.9027112 L25.6681772,35.4083704 L34.4484603,30.1825743 Z" id="Combined-Shape" stroke="#129B8F" stroke-width="0.9" fill="#34AC91"></path>
                <path d="M95.7298618,22.3109248 C95.730483,22.3179137 95.7308062,22.3245032 95.7308716,22.3307144 L95.5934324,22.4389006 L81.8205213,24.0522629 L75.7737389,15.7361876 L75.9531069,23.9148578 L72.1619194,23.67192 L69.0331003,16.0516054 L67.8624289,23.2087092 L60.5724654,22.5597718 C58.5808867,21.4211093 51.629456,20.0006578 51.629456,20.0006578 C51.629456,20.0006578 52.9282473,18.5640284 55.1319229,17.6453879 C57.3355984,16.7267474 54.0217347,17.6062827 61.5934189,15.5076133 C77.5361298,11.088718 95.1527459,21.9511921 95.7298618,22.3109248 Z" id="Combined-Shape" stroke="#129B8F" stroke-width="0.9" fill="#219985"></path>
                <path d="M34.0418416,30.2040434 L25.6681772,35.1878306 L21.121261,27.6821715 L20.1397195,36.9501324 L12.7171859,40.3188808 C12.7171859,40.3188808 9.0941476,33.6430382 9.0941476,32.7970804 C9.0941476,31.9511226 6.53583762,41.8006961 6.53583762,41.8006961 L0,43.722293 C0,43.722293 0.050476617,43.369979 0.170122985,42.7682891 C1.69416909,39.7026549 6.96391377,30.7059974 18.4755434,25.368085 C24.7281964,22.4687462 29.0201688,22.5446723 32.3200875,22.7044734 C35.6200062,22.8642746 38.7704191,23.6375512 38.7704191,23.6375512 L34.6370819,29.8393841 L34.0418416,30.2040434 Z" id="Combined-Shape" stroke="#129B8F" stroke-width="0.9" fill="#219985"></path>
                <path d="M63.8129327,32.7696634 C69.4594977,38.1816339 68.4359931,38.9891856 68.4359931,38.9891856 C68.4359931,38.9891856 52.765516,32.3775428 50.2132041,27.0983162 C50.1937497,27.0580764 50.1742926,27.0184591 50.154834,26.9794571 C50.093387,27.0641703 50.0599373,27.1097319 50.0599373,27.1097319 C50.0599373,27.1097319 51.3434436,34.7454909 49.8507534,39.7379043 C49.8302752,39.806395 49.8088535,39.8730368 49.7865179,39.9378676 L41.8518686,39.8990643 L47.29871,45.5783414 L43.7468059,52.4740539 L36.847192,51.2402132 L40.4486093,57.2192479 L36.6479876,61.9521937 C36.6479876,61.9521937 29.1251683,39.3235583 46.1601433,24.0868757 L51.2876048,25.3750518 C56.5674825,27.4284218 59.3411233,28.4836417 63.8129327,32.7696634 Z" id="Combined-Shape" stroke="#129B8F" stroke-width="0.9" fill="#219985"></path>
                <path d="M59.7175934,52.1694071 C59.7175934,52.1694071 62.8199548,51.3631397 62.8199548,51.0032052 C62.8199548,50.6432706 61.5690967,53.4629328 60.2578408,53.4629328" id="Path-15" stroke="#848484" stroke-width="0.5"></path>
                <path d="M60.2343653,58.7780858 C60.2343653,58.7780858 64.1250699,57.8220049 64.1250699,56.6310802 C64.1250699,55.4401555 65.2817107,58.537138 60.5559719,59.7354517" id="Path-16" stroke="#848484" stroke-width="0.5"></path>
                <path d="M60.8080259,63.6668987 C60.8080259,63.6668987 65.8103604,62.3010689 65.8103604,60.5997479 C65.8103604,58.8984269 67.2974701,63.3226876 61.2215201,65.0345644" id="Path-16" stroke="#848484" stroke-width="0.5"></path>
                <path d="M60.8080259,69.1742158 C60.8080259,69.1742158 66.3661754,67.53522 66.3661754,65.4936348 C66.3661754,63.4520496 68.0185194,68.7611624 61.2674639,70.8154145" id="Path-16" stroke="#848484" stroke-width="0.5"></path>
            </g>
            <ellipse id="sun" stroke="#DE9A29" stroke-width="1.2" fill="#FFC360" cx="203.58851" cy="28.4497677" rx="17.8535887" ry="17.8453588"></ellipse>
        </g>
    </g>
</svg>